<svg width="553" height="428" viewBox="0 0 553 428" fill="none" xmlns="http://www.w3.org/2000/svg">
<g clip-path="url(#clip0_1178:754)">
<path d="M334.58 277.772H76.8398V287.373H334.58V277.772Z" fill="#E6E6E6"/>
<path d="M334.58 324.711H76.8398V334.312H334.58V324.711Z" fill="#E6E6E6"/>
<path d="M222.953 299.108H115.209V308.709H222.953V299.108Z" fill="#E6E6E6"/>
<path d="M334.58 374.317H76.8398V383.918H334.58V374.317Z" fill="#E6E6E6"/>
<path d="M120.01 247.742H110.409V380.184H120.01V247.742Z" fill="#E6E6E6"/>
<path d="M299.227 247.742H289.626V330.045H299.227V247.742Z" fill="#E6E6E6"/>
<path d="M226.687 247.742H217.086V404.112H226.687V247.742Z" fill="#E6E6E6"/>
<path d="M171.748 326.311H162.147V404.112H171.748V326.311Z" fill="#E6E6E6"/>
<path d="M221.886 342.994C228.661 342.994 234.154 337.501 234.154 330.726C234.154 323.95 228.661 318.458 221.886 318.458C215.111 318.458 209.618 323.95 209.618 330.726C209.618 337.501 215.111 342.994 221.886 342.994Z" fill="#0A1D7C"/>
<path d="M223.357 257.847C265.152 257.847 299.033 223.965 299.033 182.169C299.033 140.374 265.152 106.491 223.357 106.491C181.562 106.491 147.68 140.374 147.68 182.169C147.68 223.965 181.562 257.847 223.357 257.847Z" fill="#0A1D7C"/>
<path d="M224.097 305.191L200.189 264.349L176.28 223.508L223.604 223.223L270.927 222.938L247.512 264.065L224.097 305.191Z" fill="#0A1D7C"/>
<path d="M223.964 208.845C238.96 208.845 251.116 196.689 251.116 181.693C251.116 166.698 238.96 154.541 223.964 154.541C208.969 154.541 196.812 166.698 196.812 181.693C196.812 196.689 208.969 208.845 223.964 208.845Z" fill="white"/>
<path d="M221.606 0.388859C221.606 0.388859 205.413 -4.17268 200.623 17.9508C195.834 40.0742 199.483 51.25 199.483 51.25L235.633 47.0305C235.633 47.0305 245.896 7.11711 221.606 0.388859Z" fill="#2F2E41"/>
<path d="M197.379 96.2104C197.379 96.2104 173.627 98.5762 177.857 108.166C182.088 117.755 182.088 118.602 182.088 118.602L202.959 155.832L209.728 148.781C209.728 148.781 202.113 132.14 202.113 126.781C202.113 121.422 194.216 112.115 194.216 112.115L208.036 110.986L197.379 96.2104Z" fill="#FFB9B9"/>
<path d="M262.471 107.602L270.368 124.807C270.368 124.807 276.291 130.73 282.778 154.422C289.265 178.114 290.675 177.268 290.675 177.268L280.803 179.242C280.803 179.242 269.804 153.575 266.137 151.601C262.471 149.627 257.958 131.576 257.958 131.576L244.984 115.217L248.933 106.473L262.471 107.602Z" fill="#FFB9B9"/>
<path d="M252.881 87.8579L265.009 110.422C265.009 110.422 249.779 103.371 247.522 118.883L233.702 108.165C233.702 108.165 214.523 114.37 202.959 112.114C202.959 112.114 206.344 101.396 194.216 96.6014L221.574 93.2168L220.446 87.2938L223.266 81.6528L252.881 87.8579Z" fill="#2F2E41"/>
<path d="M204.651 150.755C204.651 150.755 197.036 149.627 199.01 156.396L202.959 169.934C202.959 169.934 197.882 183.754 205.78 180.652C213.677 177.549 218.754 158.37 218.754 158.37C218.754 158.37 222.138 143.704 218.754 143.704C215.369 143.704 204.651 141.447 205.78 143.704C206.908 145.96 204.651 150.755 204.651 150.755Z" fill="#2F2E41"/>
<path d="M289.829 173.319C289.829 173.319 279.958 170.78 277.701 174.729C275.445 178.678 276.009 191.652 276.009 191.934C276.009 192.216 279.393 195.037 280.522 195.037C281.65 195.037 288.701 207.729 298.29 203.216C307.88 198.703 289.829 173.319 289.829 173.319Z" fill="#2F2E41"/>
<path d="M229.611 25.594C230.584 19.5974 226.511 13.9473 220.515 12.9742C214.518 12.0011 208.868 16.0734 207.895 22.0701C206.922 28.0667 210.994 33.7168 216.991 34.6899C222.988 35.663 228.638 31.5907 229.611 25.594Z" fill="#FFB9B9"/>
<path d="M227.779 26.0896C227.779 26.0896 230.036 37.9356 232.01 39.6279C233.984 41.3202 217.061 43.8587 217.061 43.8587C217.061 43.8587 219.6 35.6792 216.497 31.4485C213.395 27.2178 227.779 26.0896 227.779 26.0896Z" fill="#FFB9B9"/>
<path d="M257.394 93.2171C255.473 93.2171 250.582 92.4217 245.099 91.3979C240.355 90.5122 235.163 89.4602 231.067 88.6084C226.682 87.6946 223.548 87.012 223.548 87.012C223.548 87.012 222.42 94.0632 218.753 93.2171C215.595 92.4894 206.155 59.5151 203.602 50.4021C203.416 49.7367 203.452 49.0286 203.705 48.3855C203.958 47.7424 204.414 47.1997 205.004 46.8399L217.969 38.9227L221.292 40.1919C221.292 40.1919 226.905 35.854 230.162 35.7666C233.42 35.6792 239.061 34.833 239.061 34.833C239.061 34.833 245.548 35.3971 246.676 40.1919C247.804 44.9867 248.368 74.8839 252.599 80.2428C256.829 85.6017 262.752 93.2171 257.394 93.2171Z" fill="#24D1F6"/>
<path d="M217.908 109.012C217.908 109.012 217.908 120.012 225.241 118.319C232.574 116.627 225.805 106.473 225.805 106.473L217.908 109.012Z" fill="#FFB9B9"/>
<path d="M238.215 110.14C238.215 110.14 235.677 123.114 230.318 121.14C224.959 119.166 230.318 107.602 230.318 107.602L238.215 110.14Z" fill="#FFB9B9"/>
<path opacity="0.15" d="M250.061 79.3965C250.061 79.3965 247.3 85.9851 245.1 91.3977C240.356 90.512 235.163 89.46 231.068 88.6082C231.362 87.8292 231.775 87.1005 232.292 86.4477C234.266 84.1913 233.138 83.6272 233.138 83.6272C231.446 80.2427 232.856 75.7299 232.856 75.7299C229.472 66.7043 234.548 55.4224 234.548 55.4224L250.061 79.3965Z" fill="black"/>
<path d="M235.394 55.4224C235.394 55.4224 230.318 66.7044 233.702 75.7299C233.702 75.7299 232.292 80.2427 233.984 83.6273C233.984 83.6273 235.112 84.1914 233.138 86.4478C231.164 88.7042 229.471 96.6015 230.882 98.2938C232.292 99.9861 228.907 103.089 229.753 104.781C230.6 106.473 228.343 108.73 228.343 108.73C228.343 108.73 236.805 110.422 238.215 112.96C238.215 112.96 239.907 110.986 239.061 108.73C238.215 106.473 238.779 105.627 239.625 104.217C240.471 102.807 243.01 99.7041 243.292 98.2938C243.574 96.8836 250.907 79.3966 250.907 79.3966L247.468 47.5291L235.394 55.4224Z" fill="#24D1F6"/>
<path d="M206.062 47.5251L205.535 47.621C204.8 47.7542 204.136 48.1425 203.66 48.7174C203.183 49.2923 202.925 50.017 202.93 50.7637C202.95 53.5955 203.11 58.6211 203.805 65.5763C204.934 76.8582 208.882 93.7811 209.728 95.4734C211.072 98.468 212.579 101.387 214.241 104.217C216.779 108.448 217.344 107.037 216.779 109.012C216.608 109.556 216.596 110.137 216.746 110.687C216.896 111.238 217.202 111.733 217.626 112.114C217.626 112.114 222.702 106.473 227.779 109.576C228.142 108.778 228.334 107.914 228.343 107.037C228.343 105.627 229.189 104.217 227.779 103.371C226.369 102.525 228.625 98.858 226.369 96.8837C224.113 94.9093 223.831 95.1914 224.113 93.2171C224.244 91.8746 224.051 90.5202 223.548 89.2684L206.062 47.5251Z" fill="#24D1F6"/>
<path d="M222.866 9.70312C222.866 9.70312 218.304 21.7912 207.129 26.8089L205.304 16.0893L222.866 9.70312Z" fill="#2F2E41"/>
<path d="M229.471 22.5639C230.328 22.5639 231.022 21.238 231.022 19.6024C231.022 17.9668 230.328 16.6409 229.471 16.6409C228.614 16.6409 227.92 17.9668 227.92 19.6024C227.92 21.238 228.614 22.5639 229.471 22.5639Z" fill="#FFB9B9"/>
</g>
<defs>
<clipPath id="clip0_1178:754">
<rect width="553" height="428" fill="white"/>
</clipPath>
</defs>
</svg>
