<svg id="Layer_1" data-name="Layer 1" xmlns="http://www.w3.org/2000/svg" xmlns:xlink="http://www.w3.org/1999/xlink" viewBox="0 0 2000 434.1"><defs><style>.cls-1{fill:#f89c44;}.cls-2{fill:#333;}.cls-3{fill:url(#linear-gradient);}.cls-4{fill:url(#linear-gradient-2);}.cls-5{fill:url(#linear-gradient-3);}.cls-6{fill:url(#linear-gradient-4);}</style><linearGradient id="linear-gradient" x1="129.93" y1="22.35" x2="316.6" y2="344.06" gradientUnits="userSpaceOnUse"><stop offset="0" stop-color="#ef5266"/><stop offset="1" stop-color="#ffd528"/></linearGradient><linearGradient id="linear-gradient-2" x1="187.67" y1="378.72" x2="-15.12" y2="8.28" gradientUnits="userSpaceOnUse"><stop offset="0" stop-color="#333"/><stop offset="0.8" stop-color="#727474"/></linearGradient><linearGradient id="linear-gradient-3" x1="256.17" y1="259.95" x2="90.65" y2="214.23" gradientUnits="userSpaceOnUse"><stop offset="0" stop-color="#727474"/><stop offset="1" stop-color="#333"/></linearGradient><linearGradient id="linear-gradient-4" x1="87.25" y1="142.02" x2="252.09" y2="142.02" gradientUnits="userSpaceOnUse"><stop offset="0" stop-color="#ce1e4d"/><stop offset="1" stop-color="#f69055"/></linearGradient></defs><title>BoG_LogoHorizontal_RGB_Color</title><rect class="cls-1" x="622.5" y="80.69" width="32.24" height="32.18"/><path class="cls-2" d="M597.12,215.71c0,54.34-41.5,80.61-75.24,80.61-26.57,0-48.66-16.12-52.54-31.65v28.66H437.09V82.25h32.25v83c3.88-13.13,26-29.85,52.54-29.85C555.62,135.4,597.12,162.27,597.12,215.71Zm-31.35,0c0-34.34-24.48-51.65-48.66-51.65s-49.27,17-49.27,51.65c0,34.93,25.08,52,49.27,52S565.77,250.34,565.77,215.71Z"/><rect class="cls-2" x="622.5" y="138.08" width="32.24" height="155.25"/><path class="cls-2" d="M732.37,165v86.88c0,8.36,3,14.93,12.54,14.93a49.28,49.28,0,0,0,20.3-4.18v27.17c-6.57,3.28-15.23,5.37-28.66,5.37-19.41,0-36.43-7.76-36.43-42.09V165H678.63V138.08h21.49V101.66h32.25v36.42h32.84V165Z"/><path class="cls-2" d="M841.34,161.37c-11.94,0-21.2,6.87-21.2,17.32,0,8.36,5.38,14.93,17.92,19.4l17,6c24.49,8.66,44.49,18.51,44.49,45.68,0,31.05-27.77,46.88-57.92,46.88-30.45,0-52.55-15.83-58.52-42.4l25.68-7.76c4.48,14,16.42,24.18,32.84,24.18,14,0,26.57-7.76,26.57-20.3,0-9.55-7.16-15.82-20.3-20.6l-17.62-6.27c-28.66-10.15-41.2-25.67-41.2-45.08,0-26.27,23.29-43,51.06-43,26.87,0,45.38,14.63,53.74,36.72L867,179.58C861.64,167.64,853,161.37,841.34,161.37Z"/><path class="cls-2" d="M1131.77,216c0,54-45.08,80.31-80.31,80.31S971.14,270.05,971.14,216c0-53.75,45.08-80.62,80.32-80.62S1131.77,162.26,1131.77,216Zm-129.28,0c0,34.33,26.27,51.65,49,51.65s49-17.32,49-51.65c0-34.64-26.27-51.95-49-51.95S1002.49,181.37,1002.49,216Z"/><path class="cls-2" d="M1197.45,129.12v9h40V165h-40V293.33h-32.24V165h-18.52V138.08h18.52v-9c0-43.29,30.15-49.86,49.56-49.86,13.73,0,26.57,3.58,36.12,9.56l-11.34,22.39c-7.46-3.28-13.14-5.08-21.5-5.08C1202.83,106.13,1197.45,115.69,1197.45,129.12Z"/><path class="cls-2" d="M1459,138.07V293.33c0,46.88-43.29,61.51-75,61.51-21.19,0-36.42-5.08-44.48-10.45V317.51c8.06,5.38,23,10.16,44.48,10.16,27.18,0,42.7-14.64,42.7-34.34V264.67c-3.88,15.52-26,31.65-52.55,31.65-33.74,0-75.23-26.28-75.23-80.62,0-53.44,41.49-80.31,75.23-80.31,26.58,0,48.67,16.72,52.55,29.86V138.07Zm-30.76,77.63c0-34.63-25.08-51.65-49.26-51.65s-48.67,17.32-48.67,51.65c0,34.64,24.49,51.95,48.67,51.95S1428.25,250.63,1428.25,215.7Z"/><path class="cls-2" d="M1645,216c0,54-45.08,80.32-80.32,80.32S1484.38,270,1484.38,216c0-53.74,45.08-80.61,80.31-80.61S1645,162.26,1645,216Zm-129.28,0c0,34.34,26.27,51.65,49,51.65s49-17.31,49-51.65c0-34.63-26.27-51.95-49-51.95S1515.73,181.37,1515.73,216Z"/><path class="cls-2" d="M1822.06,216c0,54-45.09,80.32-80.32,80.32S1661.43,270,1661.43,216c0-53.74,45.08-80.61,80.31-80.61S1822.06,162.26,1822.06,216Zm-129.28,0c0,34.34,26.27,51.65,49,51.65s49-17.31,49-51.65c0-34.63-26.27-51.95-49-51.95S1692.78,181.37,1692.78,216Z"/><path class="cls-2" d="M2000,82.24V293.33h-32.25V264.67c-3.88,15.52-26,31.65-52.54,31.65-33.74,0-75.24-26.28-75.24-80.62,0-53.44,41.5-80.31,75.24-80.31,26.57,0,48.66,16.72,52.54,29.86v-83ZM1969.25,215.7c0-34.63-25.08-51.65-49.27-51.65s-48.66,17.32-48.66,51.65c0,34.64,24.48,51.95,48.66,51.95S1969.25,250.63,1969.25,215.7Z"/><path class="cls-3" d="M292.58,434.1l-80.86-32.73C256.15,291.72,257.53,242.45,255,197.64a119.29,119.29,0,0,0-2.91-20.42C241.41,122.8,208.88,95.29,164.8,90c-32.07-3.91-57.4,3.29-77.54,14.91V45.22a168.23,168.23,0,0,1,82.08-21.14c44.63,0,86.46,16.13,117.78,45.4,33.14,31,52.14,73.59,55,123.21C345.76,257.26,338.74,320.16,292.58,434.1Z"/><path class="cls-4" d="M248.64,287.15c-4.12,19.55-10.38,42.11-19.79,69a170.27,170.27,0,0,1-57.78,10C76.74,366.21,0,289.47,0,195.15V0H87.26V195.18A83.76,83.76,0,0,0,90,216.56h0c11,45.85,44.11,78.51,84.87,83.46C205,303.69,229.12,297.56,248.64,287.15Z"/><path class="cls-5" d="M248.63,287.22c-19.51,10.41-43.63,16.54-73.76,12.87C134.11,295.14,101,262.48,90,216.63A83.83,83.83,0,0,0,254.86,196c.07.52.11,1.07.14,1.59C256.45,222.72,256.63,249.3,248.63,287.22Z"/><path class="cls-6" d="M252.09,177.21c-4.19-17.75-12.49-32.73-24.54-44-15.12-14.12-35.77-21.87-58.23-21.87-46,0-82.07,36.82-82.07,83.84V104.86C107.39,93.24,132.71,86,164.79,90,208.87,95.28,241.39,122.79,252.09,177.21Z"/></svg>