<svg width="624" height="555" viewBox="0 0 624 555" fill="none" xmlns="http://www.w3.org/2000/svg">
<g clip-path="url(#clip0)">
<path d="M106.676 322.042C106.05 322.042 105.448 322.291 105.005 322.734C104.562 323.177 104.312 323.777 104.312 324.403V520.875C104.312 521.502 104.562 522.102 105.005 522.545C105.448 522.987 106.05 523.236 106.676 523.237H431.257C431.884 523.236 432.485 522.987 432.929 522.545C433.372 522.102 433.621 521.502 433.622 520.875V324.403C433.621 323.777 433.372 323.177 432.929 322.734C432.485 322.291 431.884 322.042 431.257 322.042H106.676Z" fill="white"/>
<path d="M434.41 360.195H99.7666V372.645H434.41V360.195Z" fill="#E6E6E6"/>
<path d="M434.41 421.062H99.7666V433.512H434.41V421.062Z" fill="#E6E6E6"/>
<path d="M289.476 387.862H149.584V400.312H289.476V387.862Z" fill="#E6E6E6"/>
<path d="M434.41 485.387H99.7666V497.837H434.41V485.387Z" fill="#E6E6E6"/>
<path d="M155.817 321.254H143.351V492.995H155.817V321.254Z" fill="#E6E6E6"/>
<path d="M388.509 321.254H376.043V427.979H388.509V321.254Z" fill="#E6E6E6"/>
<path d="M294.324 321.254H281.858V524.024H294.324V321.254Z" fill="#E6E6E6"/>
<path d="M222.993 423.137H210.527V524.024H222.993V423.137Z" fill="#E6E6E6"/>
<path d="M288.091 444.77C296.888 444.77 304.019 437.647 304.019 428.861C304.019 420.076 296.888 412.953 288.091 412.953C279.294 412.953 272.163 420.076 272.163 428.861C272.163 437.647 279.294 444.77 288.091 444.77Z" fill="#0A1D7C"/>
<path d="M290 334.358C344.266 334.358 388.257 290.422 388.257 236.224C388.257 182.027 344.266 138.091 290 138.091C235.735 138.091 191.744 182.027 191.744 236.224C191.744 290.422 235.735 334.358 290 334.358Z" fill="#0A1D7C"/>
<path d="M290.961 395.75L259.919 342.789L228.877 289.829L290.321 289.46L351.765 289.09L321.363 342.42L290.961 395.75Z" fill="#0A1D7C"/>
<path d="M290.789 270.816C310.259 270.816 326.042 255.052 326.042 235.607C326.042 216.161 310.259 200.398 290.789 200.398C271.319 200.398 255.536 216.161 255.536 235.607C255.536 255.052 271.319 270.816 290.789 270.816Z" fill="white"/>
<path d="M287.728 0.504244C287.728 0.504244 266.703 -5.41084 260.484 23.2773C254.266 51.9654 259.004 66.4573 259.004 66.4573L305.939 60.9859C305.939 60.9859 319.265 9.22896 287.728 0.504244Z" fill="#2F2E41"/>
<path d="M256.272 124.759C256.272 124.759 225.432 127.826 230.925 140.262C236.418 152.697 236.418 153.794 236.418 153.794L263.517 202.072L272.305 192.928C272.305 192.928 262.418 171.35 262.418 164.401C262.418 157.451 252.164 145.382 252.164 145.382L270.108 143.919L256.272 124.759Z" fill="#FFB9B9"/>
<path d="M340.784 139.53L351.038 161.84C351.038 161.84 358.728 169.521 367.151 200.243C375.573 230.965 377.404 229.868 377.404 229.868L364.587 232.428C364.587 232.428 350.306 199.146 345.545 196.585C340.784 194.025 334.925 170.618 334.925 170.618L318.08 149.405L323.207 138.067L340.784 139.53Z" fill="#FFB9B9"/>
<path d="M328.334 113.928L344.08 143.187C344.08 143.187 324.306 134.044 321.376 154.16L303.432 140.261C303.432 140.261 278.531 148.308 263.517 145.382C263.517 145.382 267.911 131.484 252.165 125.266L287.686 120.877L286.221 113.197L289.883 105.882L328.334 113.928Z" fill="#2F2E41"/>
<path d="M265.714 195.488C265.714 195.488 255.826 194.025 258.39 202.803L263.516 220.359C263.516 220.359 256.925 238.28 267.178 234.257C277.432 230.234 284.024 205.363 284.024 205.363C284.024 205.363 288.418 186.345 284.024 186.345C279.629 186.345 265.714 183.419 267.178 186.345C268.643 189.271 265.714 195.488 265.714 195.488Z" fill="#2F2E41"/>
<path d="M376.306 224.748C376.306 224.748 363.489 221.456 360.559 226.576C357.63 231.697 358.362 248.521 358.362 248.886C358.362 249.252 362.757 252.91 364.221 252.91C365.686 252.91 374.841 269.368 387.292 263.516C399.743 257.664 376.306 224.748 376.306 224.748Z" fill="#2F2E41"/>
<path d="M298.121 33.1886C299.384 25.4125 294.097 18.0859 286.311 16.824C278.525 15.5622 271.189 20.843 269.926 28.619C268.662 36.395 273.95 43.7217 281.736 44.9835C289.521 46.2454 296.857 40.9646 298.121 33.1886Z" fill="#FFB9B9"/>
<path d="M295.742 33.8311C295.742 33.8311 298.672 49.1921 301.235 51.3866C303.799 53.581 281.827 56.8727 281.827 56.8727C281.827 56.8727 285.122 46.2662 281.094 40.7801C277.066 35.294 295.742 33.8311 295.742 33.8311Z" fill="#FFB9B9"/>
<path d="M334.193 120.877C331.699 120.877 325.349 119.846 318.23 118.518C312.071 117.37 305.329 116.006 300.012 114.901C294.318 113.716 290.249 112.831 290.249 112.831C290.249 112.831 288.784 121.974 284.024 120.877C279.922 119.934 267.666 77.175 264.352 65.3579C264.109 64.495 264.156 63.5767 264.485 62.7429C264.813 61.909 265.406 61.2052 266.172 60.7386L283.006 50.4722L287.319 52.118C287.319 52.118 294.607 46.4929 298.836 46.3795C303.066 46.2662 310.39 45.1689 310.39 45.1689C310.39 45.1689 318.813 45.9004 320.277 52.118C321.742 58.3356 322.475 97.1041 327.968 104.053C333.46 111.002 341.151 120.877 334.193 120.877Z" fill="#24D1F6"/>
<path d="M282.925 141.359C282.925 141.359 282.925 155.622 292.446 153.428C301.968 151.234 293.179 138.067 293.179 138.067L282.925 141.359Z" fill="#FFB9B9"/>
<path d="M309.292 142.821C309.292 142.821 305.996 159.646 299.038 157.085C292.08 154.525 299.038 139.53 299.038 139.53L309.292 142.821Z" fill="#FFB9B9"/>
<path opacity="0.15" d="M324.672 102.956C324.672 102.956 321.087 111.499 318.23 118.518C312.071 117.369 305.329 116.005 300.012 114.901C300.394 113.891 300.93 112.946 301.601 112.099C304.165 109.173 302.7 108.442 302.7 108.442C300.503 104.053 302.334 98.201 302.334 98.201C297.939 86.4973 304.531 71.8677 304.531 71.8677L324.672 102.956Z" fill="black"/>
<path d="M305.63 71.8679C305.63 71.8679 299.038 86.4975 303.432 98.2012C303.432 98.2012 301.601 104.053 303.799 108.442C303.799 108.442 305.263 109.173 302.7 112.099C300.137 115.025 297.939 125.266 299.77 127.46C301.601 129.655 297.207 133.678 298.306 135.872C299.404 138.067 296.475 140.993 296.475 140.993C296.475 140.993 307.461 143.187 309.292 146.479C309.292 146.479 311.489 143.919 310.39 140.993C309.292 138.067 310.024 136.97 311.123 135.141C312.221 133.312 315.517 129.289 315.883 127.46C316.249 125.632 325.77 102.956 325.77 102.956L321.305 61.6323L305.63 71.8679Z" fill="#24D1F6"/>
<path d="M267.545 61.6274L266.861 61.7517C265.907 61.9244 265.044 62.4279 264.426 63.1735C263.807 63.919 263.472 64.8587 263.479 65.8269C263.505 69.499 263.712 76.0159 264.615 85.0349C266.08 99.6645 271.207 121.609 272.305 123.803C274.05 127.687 276.006 131.471 278.164 135.141C281.46 140.627 282.193 138.799 281.46 141.359C281.237 142.064 281.222 142.818 281.417 143.532C281.612 144.245 282.008 144.888 282.559 145.382C282.559 145.382 289.15 138.067 295.742 142.09C296.213 141.056 296.463 139.935 296.474 138.799C296.474 136.97 297.573 135.141 295.742 134.044C293.911 132.947 296.841 128.192 293.911 125.632C290.981 123.072 290.615 123.438 290.981 120.877C291.152 119.137 290.901 117.38 290.249 115.757L267.545 61.6274Z" fill="#24D1F6"/>
<path d="M289.363 12.582C289.363 12.582 283.441 28.257 268.931 34.7636L266.562 20.8631L289.363 12.582Z" fill="#2F2E41"/>
<path d="M297.939 29.2592C299.052 29.2592 299.954 27.5398 299.954 25.4189C299.954 23.298 299.052 21.5786 297.939 21.5786C296.827 21.5786 295.925 23.298 295.925 25.4189C295.925 27.5398 296.827 29.2592 297.939 29.2592Z" fill="#FFB9B9"/>
</g>
<defs>
<clipPath id="clip0">
<rect width="718" height="555" fill="white"/>
</clipPath>
</defs>
</svg>
