<svg width="24" height="24" viewBox="0 0 24 24" fill="none" xmlns="http://www.w3.org/2000/svg">
<g id="Icon/Outline/bell">
<path id="Mask" fill-rule="evenodd" clip-rule="evenodd" d="M5.51534 16.0001L6.69534 14.8181C7.07334 14.4401 7.28134 13.9381 7.28134 13.4041V8.72708C7.28134 7.37008 7.87134 6.07308 8.90134 5.17108C9.93934 4.26108 11.2613 3.86108 12.6383 4.04208C14.9653 4.35108 16.7203 6.45508 16.7203 8.93708V13.4041C16.7203 13.9381 16.9283 14.4401 17.3053 14.8171L18.4863 16.0001H5.51534ZM14.0003 18.3411C14.0003 19.2401 13.0843 20.0001 12.0003 20.0001C10.9163 20.0001 10.0003 19.2401 10.0003 18.3411V18.0001H14.0003V18.3411ZM20.5213 15.2081L18.7203 13.4041V8.93708C18.7203 5.45608 16.2183 2.49908 12.9003 2.06008C10.9783 1.80408 9.03834 2.39108 7.58334 3.66708C6.11934 4.94908 5.28134 6.79308 5.28134 8.72708L5.28034 13.4041L3.47934 15.2081C3.01034 15.6781 2.87134 16.3771 3.12534 16.9901C3.38034 17.6041 3.97334 18.0001 4.63734 18.0001H8.00034V18.3411C8.00034 20.3591 9.79434 22.0001 12.0003 22.0001C14.2063 22.0001 16.0003 20.3591 16.0003 18.3411V18.0001H19.3633C20.0273 18.0001 20.6193 17.6041 20.8733 16.9911C21.1283 16.3771 20.9903 15.6771 20.5213 15.2081Z" fill="#231F20"/>
<mask id="mask0" mask-type="alpha" maskUnits="userSpaceOnUse" x="3" y="2" width="18" height="20">
<path id="Mask_2" fill-rule="evenodd" clip-rule="evenodd" d="M5.51534 16.0001L6.69534 14.8181C7.07334 14.4401 7.28134 13.9381 7.28134 13.4041V8.72708C7.28134 7.37008 7.87134 6.07308 8.90134 5.17108C9.93934 4.26108 11.2613 3.86108 12.6383 4.04208C14.9653 4.35108 16.7203 6.45508 16.7203 8.93708V13.4041C16.7203 13.9381 16.9283 14.4401 17.3053 14.8171L18.4863 16.0001H5.51534ZM14.0003 18.3411C14.0003 19.2401 13.0843 20.0001 12.0003 20.0001C10.9163 20.0001 10.0003 19.2401 10.0003 18.3411V18.0001H14.0003V18.3411ZM20.5213 15.2081L18.7203 13.4041V8.93708C18.7203 5.45608 16.2183 2.49908 12.9003 2.06008C10.9783 1.80408 9.03834 2.39108 7.58334 3.66708C6.11934 4.94908 5.28134 6.79308 5.28134 8.72708L5.28034 13.4041L3.47934 15.2081C3.01034 15.6781 2.87134 16.3771 3.12534 16.9901C3.38034 17.6041 3.97334 18.0001 4.63734 18.0001H8.00034V18.3411C8.00034 20.3591 9.79434 22.0001 12.0003 22.0001C14.2063 22.0001 16.0003 20.3591 16.0003 18.3411V18.0001H19.3633C20.0273 18.0001 20.6193 17.6041 20.8733 16.9911C21.1283 16.3771 20.9903 15.6771 20.5213 15.2081Z" fill="white"/>
</mask>
<g mask="url(#mask0)">
<g id="&#240;&#159;&#142;&#168; Color">
<rect id="Base" width="24" height="24" fill="#E3DEFF"/>
</g>
</g>
</g>
</svg>
