<svg width="138" height="99" viewBox="0 0 138 99" fill="none" xmlns="http://www.w3.org/2000/svg">
<g clip-path="url(#clip0)">
<path d="M127.205 71.5739C124.513 71.5739 122.326 69.3868 122.326 66.6947C122.326 64.0026 124.513 61.8156 127.205 61.8156C129.897 61.8156 132.084 64.0026 132.084 66.6947C132.084 69.3868 129.897 71.5739 127.205 71.5739ZM127.205 63.9555C125.694 63.9555 124.466 65.1839 124.466 66.6947C124.466 68.2055 125.694 69.4339 127.205 69.4339C128.716 69.4339 129.944 68.2055 129.944 66.6947C129.944 65.1839 128.716 63.9555 127.205 63.9555Z" fill="#949495"/>
<path d="M133.826 32.3438C131.601 32.3438 129.79 30.5333 129.79 28.3077C129.79 26.0822 131.601 24.2717 133.826 24.2717C136.052 24.2717 137.862 26.0822 137.862 28.3077C137.866 30.5333 136.052 32.3438 133.826 32.3438ZM133.826 26.4074C132.782 26.4074 131.93 27.2591 131.93 28.3035C131.93 29.3521 132.782 30.1995 133.826 30.1995C134.87 30.1995 135.722 29.3478 135.722 28.3035C135.726 27.2591 134.875 26.4074 133.826 26.4074Z" fill="#949495"/>
<path d="M123.289 20.287V21.8107C123.289 22.0547 123.092 22.2558 122.844 22.2558H115.598C115.354 22.2558 115.153 22.0589 115.153 21.8107V20.287C115.153 20.0431 115.349 19.8419 115.598 19.8419H122.844C123.092 19.8419 123.289 20.0388 123.289 20.287Z" fill="#949495"/>
<path d="M107.504 61.5288C106.439 61.5288 105.578 60.6685 105.578 59.6028V14.509C105.578 11.4146 103.062 8.90227 99.9715 8.90227H89.7381C88.6724 8.90227 87.8121 8.04199 87.8121 6.97628C87.8121 5.91057 88.6724 5.05029 89.7381 5.05029H99.9715C105.189 5.05029 109.43 9.29602 109.43 14.509V59.6071C109.43 60.6685 108.57 61.5288 107.504 61.5288Z" fill="#949495"/>
<path d="M82.8773 90.4186H47.5633C42.2904 90.4186 38.0061 86.1301 38.0061 80.8615V14.5091C38.0061 9.23616 42.2946 4.9519 47.5633 4.9519H57.7967C58.9138 4.9519 59.8211 5.85926 59.8211 6.97633C59.8211 8.0934 58.9138 9.00076 57.7967 9.00076H47.5633C44.5245 9.00076 42.0507 11.4746 42.0507 14.5134V80.8657C42.0507 83.9045 44.5245 86.3783 47.5633 86.3783H82.8773C83.9944 86.3783 84.9017 87.2857 84.9017 88.4028C84.9017 89.5113 83.9944 90.4186 82.8773 90.4186Z" fill="#949495"/>
<path d="M57.0006 50.7348C59.7331 50.7348 61.9483 48.5196 61.9483 45.7871C61.9483 43.0546 59.7331 40.8395 57.0006 40.8395C54.2681 40.8395 52.053 43.0546 52.053 45.7871C52.053 48.5196 54.2681 50.7348 57.0006 50.7348Z" fill="#949495"/>
<path d="M89.8408 50.7348C92.5733 50.7348 94.7885 48.5196 94.7885 45.7871C94.7885 43.0546 92.5733 40.8395 89.8408 40.8395C87.1083 40.8395 84.8932 43.0546 84.8932 45.7871C84.8932 48.5196 87.1083 50.7348 89.8408 50.7348Z" fill="#949495"/>
<path d="M114.667 95.1925L114.715 95.1427C114.982 94.8651 114.982 94.4168 114.715 94.1393L105.748 84.8065C105.482 84.529 105.051 84.529 104.784 84.8065L104.737 84.8563C104.47 85.1339 104.47 85.5822 104.737 85.8597L113.703 95.1925C113.97 95.47 114.404 95.47 114.667 95.1925Z" fill="#949495"/>
<path d="M114.185 97.0001C113.618 97.0001 113.05 96.7759 112.616 96.324L103.65 86.9912C103.229 86.5572 103 85.9736 103 85.3581C103 84.7426 103.229 84.1626 103.65 83.725L103.697 83.6751C104.562 82.775 105.971 82.775 106.836 83.6751L115.802 93.0079C116.223 93.442 116.452 94.0255 116.452 94.6411C116.452 95.2566 116.223 95.8366 115.802 96.2742L115.751 96.3276C115.324 96.7759 114.756 97.0001 114.185 97.0001Z" fill="#949495"/>
<path d="M94.9513 33.6663C95.6361 33.9017 96.0084 34.6549 95.7687 35.344C95.5847 35.8833 95.0711 36.23 94.5147 36.23C94.382 36.23 94.2365 36.2171 94.091 36.1658L90.4744 34.9117C89.7896 34.6763 89.4173 33.9359 89.6569 33.234C89.841 32.6947 90.3546 32.348 90.911 32.348C91.0436 32.348 91.1892 32.3609 91.3347 32.4122L94.9513 33.6663Z" fill="#949495"/>
<path d="M52.6309 33.9659L56.179 32.2368C56.8038 31.9329 57.5528 32.194 57.8567 32.8146L57.9124 32.9301C58.2162 33.555 57.9552 34.304 57.3346 34.6079L53.7865 36.337C53.1616 36.6409 52.4126 36.3798 52.1087 35.7592L52.0531 35.6436C51.7492 35.0188 52.006 34.2698 52.6309 33.9659Z" fill="#949495"/>
<path d="M78.7943 63H70.504C69.8107 63 69.25 62.2903 69.25 61.4127V61.2502C69.25 60.3725 69.8107 59.6628 70.504 59.6628H78.7943C79.4877 59.6628 80.0484 60.3725 80.0484 61.2502V61.4127C80.0526 62.2849 79.4877 63 78.7943 63Z" fill="#949495"/>
<path d="M4.45973 70.9577C1.99875 70.9577 0 68.9546 0 66.4979C0 64.037 1.99875 62.0382 4.45973 62.0382C6.92071 62.0382 8.91946 64.037 8.91946 66.4979C8.91946 68.9546 6.92071 70.9577 4.45973 70.9577ZM4.45973 64.1739C3.18002 64.1739 2.13999 65.2139 2.13999 66.4937C2.13999 67.7734 3.18002 68.8134 4.45973 68.8134C5.73944 68.8134 6.77947 67.7734 6.77947 66.4937C6.77947 65.2139 5.73944 64.1739 4.45973 64.1739Z" fill="#949495"/>
<path d="M26.3817 81.9743C23.1889 81.9743 20.5952 79.3764 20.5952 76.1835C20.5952 72.9906 23.1932 70.397 26.3817 70.397C29.5703 70.397 32.1683 72.9949 32.1683 76.1835C32.1725 79.3806 29.5746 81.9743 26.3817 81.9743ZM26.3817 72.537C24.3701 72.537 22.7352 74.1719 22.7352 76.1835C22.7352 78.1951 24.3701 79.8343 26.3817 79.8343C28.3933 79.8343 30.0283 78.1994 30.0283 76.1835C30.0326 74.1762 28.3933 72.537 26.3817 72.537Z" fill="#949495"/>
<path d="M20.5995 55.0704H19.2342C18.9902 55.0704 18.7891 54.8735 18.7891 54.6252V47.91C18.7891 47.666 18.9859 47.4648 19.2342 47.4648H20.5995C20.8434 47.4648 21.0446 47.6617 21.0446 47.91V54.6252C21.0446 54.8735 20.8434 55.0704 20.5995 55.0704Z" fill="#949495"/>
<path d="M23.5441 50.7732V52.1386C23.5441 52.3825 23.3472 52.5837 23.099 52.5837H16.388C16.144 52.5837 15.9429 52.3868 15.9429 52.1386V50.7732C15.9429 50.5293 16.1398 50.3281 16.388 50.3281H23.1033C23.3472 50.3281 23.5441 50.5293 23.5441 50.7732Z" fill="#949495"/>
<path d="M119.788 25.2861H118.264C118.02 25.2861 117.819 25.0892 117.819 24.841V17.595C117.819 17.3511 118.016 17.1499 118.264 17.1499H119.788C120.032 17.1499 120.233 17.3468 120.233 17.595V24.841C120.229 25.0892 120.032 25.2861 119.788 25.2861Z" fill="#949495"/>
<path d="M96.6829 85.0846C102.238 85.0846 106.741 80.5815 106.741 75.0267C106.741 69.4718 102.238 64.9688 96.6829 64.9688C91.1281 64.9688 86.625 69.4718 86.625 75.0267C86.625 80.5815 91.1281 85.0846 96.6829 85.0846Z" fill="white"/>
<path d="M96.9498 88.7709C89.3144 88.7709 83.0999 82.5564 83.0999 74.9209C83.0999 67.2854 89.3144 61.0709 96.9498 61.0709C104.585 61.0709 110.8 67.2854 110.8 74.9209C110.8 82.5564 104.585 88.7709 96.9498 88.7709ZM96.9498 65.1198C91.5442 65.1198 87.1487 69.5153 87.1487 74.9209C87.1487 80.3265 91.5442 84.722 96.9498 84.722C102.355 84.722 106.751 80.3265 106.751 74.9209C106.751 69.5153 102.355 65.1198 96.9498 65.1198Z" fill="#949495"/>
<path d="M87.046 6.33013H60.4074C59.9965 6.33013 59.667 5.99629 59.667 5.58969V4.81502C59.667 4.40414 60.0008 4.07458 60.4074 4.07458H87.046C87.4568 4.07458 87.7864 4.40842 87.7864 4.81502V5.58969C87.7907 5.99629 87.4568 6.33013 87.046 6.33013Z" fill="white"/>
<path d="M87.1873 13.9441H60.3476C57.8267 13.9441 55.7766 11.894 55.7766 9.37314V4.57101C55.7723 2.05011 57.8224 0 60.3476 0H87.1873C89.7082 0 91.7583 2.05011 91.7583 4.57101V9.37314C91.7583 11.894 89.7082 13.9441 87.1873 13.9441ZM60.3476 4.04885C60.0566 4.04885 59.8255 4.28425 59.8255 4.57101V9.37314C59.8255 9.66417 60.0609 9.89529 60.3476 9.89529H87.1873C87.4784 9.89529 87.7095 9.65989 87.7095 9.37314V4.57101C87.7095 4.27997 87.4741 4.04885 87.1873 4.04885H60.3476Z" fill="#949495"/>
</g>
<defs>
<clipPath id="clip0">
<rect width="137.866" height="99" fill="white"/>
</clipPath>
</defs>
</svg>
