<svg width="20" height="20" viewBox="0 0 20 20" fill="none" xmlns="http://www.w3.org/2000/svg">
<g clip-path="url(#clip0_6532_7737)">
<path fill-rule="evenodd" clip-rule="evenodd" d="M10 1.875C5.51269 1.875 1.875 5.51269 1.875 10C1.875 14.4874 5.51269 18.125 10 18.125C14.4874 18.125 18.125 14.4874 18.125 10C18.125 5.51269 14.4874 1.875 10 1.875ZM0 10C0 4.47715 4.47715 0 10 0C15.5229 0 20 4.47715 20 10C20 15.5229 15.5229 20 10 20C4.47715 20 0 15.5229 0 10ZM8.125 9.6875C8.125 9.16974 8.54474 8.75 9.0625 8.75H10.3125C10.8303 8.75 11.25 9.16974 11.25 9.6875V13.125H11.5625C12.0803 13.125 12.5 13.5448 12.5 14.0625C12.5 14.5802 12.0803 15 11.5625 15H9.0625C8.54474 15 8.125 14.5802 8.125 14.0625C8.125 13.5448 8.54474 13.125 9.0625 13.125H9.375V10.625H9.0625C8.54474 10.625 8.125 10.2053 8.125 9.6875ZM10 7.5C10.6904 7.5 11.25 6.94035 11.25 6.25C11.25 5.55965 10.6904 5 10 5C9.30965 5 8.75 5.55965 8.75 6.25C8.75 6.94035 9.30965 7.5 10 7.5Z" fill="#226DFF"/>
</g>
<defs>
<clipPath id="clip0_6532_7737">
<rect width="20" height="20" fill="white"/>
</clipPath>
</defs>
</svg>
