<svg width="20" height="21" viewBox="0 0 20 21" fill="none" xmlns="http://www.w3.org/2000/svg">
<path fill-rule="evenodd" clip-rule="evenodd" d="M13.7657 2.28328C14.62 1.42901 16.005 1.42901 16.8592 2.28328L18.2165 3.64052C19.0707 4.49478 19.0707 5.87983 18.2165 6.73411L7.45442 17.4962C7.19154 17.7591 6.86602 17.9506 6.50857 18.0527L2.44502 19.2137C2.11764 19.3073 1.7653 19.2159 1.52455 18.9752C1.2838 18.7344 1.1925 18.3822 1.28603 18.0548L2.44705 13.9912C2.54918 13.6338 2.74072 13.3082 3.00359 13.0453L13.7657 2.28328ZM15.5335 3.60911C15.4114 3.48707 15.2135 3.48707 15.0915 3.60911L13.5132 5.18731L15.3125 6.98648L16.8907 5.40828C17.0127 5.28625 17.0127 5.08838 16.8907 4.96635L15.5335 3.60911ZM13.9866 8.31231L12.1875 6.51313L4.32942 14.3712C4.29187 14.4087 4.2645 14.4552 4.2499 14.5063L3.55248 16.9473L5.99347 16.2498C6.04453 16.2353 6.09103 16.2079 6.12859 16.1703L13.9866 8.31231Z" fill="#828282"/>
</svg>
